<?xml version="1.0" standalone="no"?>
<!DOCTYPE svg PUBLIC "-//W3C//DTD SVG 20010904//EN"
 "http://www.w3.org/TR/2001/REC-SVG-20010904/DTD/svg10.dtd">
<svg version="1.0" xmlns="http://www.w3.org/2000/svg"
 width="485.000000pt" height="515.000000pt" viewBox="0 0 485.000000 515.000000"
 preserveAspectRatio="xMidYMid meet">
<metadata>
Created by potrace 1.16, written by Peter Selinger 2001-2019
</metadata>
<g transform="translate(0.000000,515.000000) scale(0.100000,-0.100000)"
fill="#000000" stroke="none">
<path d="M0 2575 l0 -2575 2425 0 2425 0 0 2575 0 2575 -2425 0 -2425 0 0
-2575z m717 1523 c17 -18 39 -49 48 -68 70 -139 435 -630 468 -630 5 0 7 26 3
63 -18 185 -18 204 -2 258 8 31 29 75 45 99 16 24 27 48 25 52 -3 4 1 5 8 3 8
-3 36 17 63 44 31 31 73 60 110 76 88 38 90 40 90 73 0 16 3 28 7 26 3 -2 40
1 82 8 138 21 271 -13 401 -102 54 -37 98 -87 136 -156 l31 -54 237 0 236 0
34 58 c54 91 86 127 154 171 86 56 162 81 266 88 47 3 91 10 97 14 8 7 10 2 7
-15 -4 -20 2 -29 28 -45 19 -12 41 -21 49 -21 8 0 46 -16 85 -36 46 -24 79
-34 97 -32 41 6 127 -85 157 -166 28 -76 51 -184 51 -242 0 -46 -26 -162 -54
-241 l-14 -41 74 -47 c95 -61 208 -166 289 -270 73 -93 198 -292 255 -405 76
-151 120 -329 90 -365 -15 -18 -91 -20 -107 -4 -7 7 -19 9 -27 6 -11 -5 -16
-25 -18 -79 l-3 -73 -32 -3 c-40 -4 -71 12 -83 44 -14 35 -28 30 -40 -15 -14
-54 -33 -68 -64 -47 -20 12 -34 45 -67 148 -41 133 -138 409 -145 417 -9 10
-14 -10 -29 -114 -19 -129 -57 -297 -86 -375 -39 -105 -135 -261 -217 -352
l-33 -37 16 -168 c20 -211 50 -437 76 -573 25 -135 64 -215 130 -267 48 -38
76 -83 64 -102 -32 -53 -340 -110 -591 -111 -195 0 -239 18 -268 109 -26 79
-85 397 -111 600 -13 107 -29 199 -35 205 -14 14 -278 20 -380 9 l-75 -8 -12
-70 c-7 -38 -21 -145 -32 -236 -20 -161 -71 -441 -92 -507 -23 -71 -106 -102
-274 -102 -269 0 -585 66 -585 123 0 12 26 45 64 81 63 61 90 102 107 160 25
85 99 670 99 783 0 24 -15 48 -68 110 -106 123 -164 241 -216 443 -33 130 -46
276 -46 522 l0 209 -32 17 c-79 42 -275 181 -352 248 -47 40 -129 120 -184
176 -167 174 -219 238 -262 329 -37 78 -46 123 -31 155 13 29 60 32 121 8 23
-9 42 -15 44 -13 2 2 -5 31 -15 64 -10 33 -20 80 -22 105 l-2 45 46 -1 c30 0
56 -7 76 -22 45 -32 54 -29 47 17 -13 80 38 107 93 49z"/>
<path d="M1677 3900 c-134 -34 -221 -140 -220 -271 0 -107 52 -191 147 -242
58 -31 193 -31 251 0 203 109 191 401 -20 494 -53 23 -110 30 -158 19z"/>
<path d="M3168 3897 c-111 -42 -176 -112 -199 -213 -24 -107 26 -223 124 -286
45 -29 62 -33 129 -37 69 -3 85 0 133 24 167 81 207 299 80 430 -75 77 -187
111 -267 82z"/>
<path d="M2310 3328 c-36 -39 -2 -118 67 -156 65 -36 131 -39 188 -11 77 38
125 130 90 169 -31 34 -36 31 -103 -58 -40 -53 -126 -41 -159 22 -16 30 -40
55 -55 56 -4 0 -17 -10 -28 -22z"/>
<path d="M1558 3069 c-23 -23 -37 -29 -54 -25 -13 4 -41 -1 -63 -10 -30 -12
-45 -26 -61 -58 -26 -54 -27 -109 -2 -104 10 2 19 16 23 33 10 51 20 69 46 89
39 29 57 12 64 -61 9 -98 74 -136 122 -71 20 27 20 28 1 63 -10 20 -27 43 -36
52 -35 32 -12 82 39 83 52 0 117 -60 138 -128 9 -30 12 -32 29 -19 16 12 17
18 7 50 -13 38 -72 108 -108 126 -12 6 -43 11 -68 11 -39 0 -52 -5 -77 -31z"/>
<path d="M3376 3075 c-23 -17 -62 -20 -71 -5 -15 24 -105 -1 -136 -37 -27 -30
-49 -80 -55 -125 -5 -35 -2 -48 15 -68 28 -33 40 -15 33 51 -4 42 0 55 22 88
31 44 63 64 97 59 26 -3 27 -12 14 -114 -6 -45 -5 -54 16 -73 27 -25 48 -27
75 -7 15 12 19 26 18 73 -1 32 -5 72 -9 89 -7 30 -5 32 26 39 31 7 36 4 74
-39 43 -50 65 -58 65 -26 0 22 -51 80 -87 99 -30 15 -74 13 -97 -4z"/>
</g>
</svg>
